<?xml version="1.0" encoding="utf-8"?>
<!-- Generator: Adobe Illustrator 22.0.0, SVG Export Plug-In . SVG Version: 6.00 Build 0)  -->
<svg version="1.1" id="Layer_1" xmlns="http://www.w3.org/2000/svg" xmlns:xlink="http://www.w3.org/1999/xlink" x="0px" y="0px"
	 viewBox="0 0 3000 1889.5" style="enable-background:new 0 0 3000 1889.5;" xml:space="preserve">
<style type="text/css">
	.st0{fill:#2F4858;}
	.st1{fill:#00C5A6;}
</style>
<path class="st0" d="M2320.4,1527.9c-92.1,0-130.8-88.9-130.8-173.6c0-88.9,33.5-172.6,130.8-172.6s127.6,83.7,127.6,171.5
	C2448,1441,2418.7,1527.9,2320.4,1527.9z M660.3,1181.6c87.9,0,126.6,82.6,126.6,173.6c0,91-38.7,172.6-126.6,172.6
	c-87.9,0-126.6-82.6-126.6-172.6C533.7,1265.2,572.8,1181.6,660.3,1181.6z M2843.4,1037.4l69.6-126.8L1642.1,213.3l-150.3-82.3
	l-150.4,82.3L70.6,910.7l69.6,126.8l250.3-137.4v725.4h141.2v-69.6h2.1c32.4,59.7,98.4,83.6,177.8,83.6
	c107.7,0,223.9-86.8,223.9-285.6c0-198.8-116.2-284.1-223.5-284.1c-66.9,0-133.9,25.1-170.6,80.6H539V818.6l952.8-522.7l950.6,521.7
	v332.7h-2.1c-33.5-53.3-96.3-80.6-160-80.6c-159.1,0-239.6,135-239.6,280.3c0,149.2,79.6,289.8,242.6,289.8
	c69,0,129.3-25.1,164.2-83.6h2.1v69.2h141.9v-726L2843.4,1037.4z"/>
<path class="st0" d="M1362.5,1367.9c0,109.4-34.5,154.8-115.1,154.8c-69,0-95.2-44-95.2-132.9v-305.5h-148.5v332.3
	c0,133.9,39.8,222.8,197.7,222.8c8.2,0.1,16.4-0.3,24.5-1.3c8.1-0.9,16.2-2.4,24.1-4.3c8-2,15.7-4.4,23.4-7.4
	c7.6-3,15.1-6.4,22.3-10.3c7.2-3.9,14.1-8.2,20.8-13c6.7-4.8,13-10,19-15.6c6-5.6,11.6-11.5,16.8-17.8c5.2-6.3,10-12.9,14.4-19.8
	h3.2v75.6h141.2v-541.1h-148.7V1367.9L1362.5,1367.9z"/>
<rect x="1824.2" y="822.5" class="st0" width="148.6" height="802.5"/>
<polygon class="st1" points="1592.1,1566.6 1740.6,1648 1740.6,1049.6 1592.1,1131.2 "/>
<path class="st0" d="M2757.8,1477.9v39c1.9,0,3.8,0.2,5.7,0.6c1.9,0.4,3.7,1,5.4,1.7c1.7,0.8,3.4,1.7,4.9,2.8c1.5,1.1,3,2.4,4.3,3.8
	c1.3,1.4,2.4,2.9,3.4,4.6c1,1.6,1.8,3.4,2.4,5.2c0.6,1.8,1,3.7,1.3,5.5c0.2,1.9,0.3,3.8,0.1,5.7c0,25-22.1,34.5-44.2,34.5
	c-22.1,0-44.1-9.9-44.1-34.5c-0.2-1.7-0.2-3.5-0.1-5.2c0.1-1.7,0.4-3.4,0.9-5.1c0.5-1.7,1.1-3.3,1.9-4.9c0.8-1.6,1.7-3,2.7-4.4
	c1.1-1.4,2.2-2.6,3.5-3.8c1.3-1.2,2.7-2.2,4.2-3c1.5-0.9,3.1-1.6,4.7-2.2c1.6-0.6,3.3-1,5-1.2v-38.7c-35.8,1-56.2,35.8-56.2,67.8
	c0,44.9,34.3,74.1,77.4,74.1c43.1,0,77.4-29.1,77.4-74.1C2818.6,1508.1,2796.1,1480,2757.8,1477.9z"/>
<path class="st0" d="M2741.2,1419.1c-22.1,0-44.1-9.9-44.1-34.5c0-24.6,22.1-34.5,44.1-34.5c22,0,44.2,9.9,44.2,34.5
	C2785.4,1409.1,2763.2,1419,2741.2,1419.1L2741.2,1419.1z M2741.2,1311.3c-43.1,0-77.4,26.5-77.4,73.2c0,46.7,34.3,73.2,77.4,73.2
	c43.1,0,77.4-26.5,77.4-73.2C2818.6,1337.7,2784.3,1311.3,2741.2,1311.3z"/>
<polygon class="st0" points="2815.4,1158.7 2815.4,1122.2 2666.9,1122.2 2666.9,1179.3 2766,1204.9 2766,1205.3 2666.9,1230.9 
	2666.9,1287.9 2815.4,1287.9 2815.4,1251.5 2702.7,1251.5 2702.7,1251 2815.4,1219.9 2815.4,1190.3 2702.7,1159.1 2702.7,1158.7 "/>
</svg>
